<svg width="45" height="44" viewBox="0 0 45 44" fill="none" xmlns="http://www.w3.org/2000/svg">
<path d="M29.2559 20.2705C29.8922 20.2705 30.408 20.7866 30.4082 21.4229C30.4082 24.974 29.8207 30.2481 28.7939 34.6494C28.2818 36.8446 27.645 38.8905 26.8838 40.4131C26.5046 41.1715 26.0645 41.8613 25.5469 42.376C25.0275 42.8922 24.338 43.3184 23.4941 43.3184C20.9953 43.3181 19.571 41.224 18.8184 39.2666C18.0335 37.2253 17.7338 34.7705 17.7373 32.9443C17.7388 32.3081 18.2563 31.7937 18.8926 31.7949C19.5289 31.7963 20.0442 32.3129 20.043 32.9492C20.0399 34.5801 20.3145 36.7355 20.9697 38.4395C21.6571 40.2269 22.5384 41.0135 23.4941 41.0137C23.5145 41.0137 23.6537 41.0078 23.9219 40.7412C24.1919 40.4728 24.4994 40.0276 24.8223 39.3818C25.4654 38.0956 26.0538 36.2521 26.5498 34.126C27.5393 29.8845 28.1035 24.786 28.1035 21.4229C28.1037 20.7866 28.6195 20.2705 29.2559 20.2705ZM11.9717 15.667C12.6079 15.6684 13.1223 16.186 13.1211 16.8223C13.1197 17.4586 12.6032 17.9739 11.9668 17.9727C10.3359 17.9696 8.18048 18.2442 6.47656 18.8994C4.68909 19.5867 3.90256 20.4681 3.90234 21.4238C3.90234 21.4442 3.90823 21.5833 4.1748 21.8516C4.44325 22.1216 4.88841 22.4291 5.53418 22.752C6.82047 23.3951 8.66395 23.9835 10.79 24.4795C15.0315 25.469 20.13 26.0332 23.4932 26.0332C24.1295 26.0334 24.6455 26.5492 24.6455 27.1855C24.6455 27.8219 24.1295 28.3377 23.4932 28.3379C19.942 28.3379 14.668 27.7504 10.2666 26.7236C8.07144 26.2115 6.02547 25.5747 4.50293 24.8135C3.74452 24.4342 3.05472 23.9942 2.54004 23.4766C2.02384 22.9572 1.59766 22.2676 1.59766 21.4238C1.59788 18.925 3.69203 17.5007 5.64941 16.748C7.69071 15.9631 10.1455 15.6635 11.9717 15.667ZM22.3408 14.5098C25.892 14.5098 31.166 15.0973 35.5674 16.124C37.7625 16.6361 39.8085 17.2729 41.3311 18.0342C42.0895 18.4134 42.7793 18.8534 43.2939 19.3711C43.8101 19.8904 44.2363 20.58 44.2363 21.4238C44.2361 23.9226 42.142 25.347 40.1846 26.0996C38.1433 26.8845 35.6885 27.1841 33.8623 27.1807C33.2261 27.1792 32.7117 26.6617 32.7129 26.0254C32.7142 25.3891 33.2308 24.8738 33.8672 24.875C35.4981 24.8781 37.6535 24.6034 39.3574 23.9482C41.1449 23.2609 41.9314 22.3796 41.9316 21.4238C41.9316 21.4035 41.9258 21.2643 41.6592 20.9961C41.3907 20.7261 40.9456 20.4186 40.2998 20.0957C39.0135 19.4526 37.17 18.8642 35.0439 18.3682C30.8024 17.3787 25.704 16.8145 22.3408 16.8145C21.7045 16.8143 21.1885 16.2984 21.1885 15.6621C21.1885 15.0258 21.7045 14.5099 22.3408 14.5098ZM23.4941 0.680664C25.9929 0.680884 27.4173 2.77504 28.1699 4.73242C28.9548 6.77372 29.2544 9.22848 29.251 11.0547C29.2495 11.6909 28.732 12.2053 28.0957 12.2041C27.4594 12.2028 26.9441 11.6862 26.9453 11.0498C26.9484 9.41889 26.6737 7.26349 26.0186 5.55957C25.3312 3.7721 24.4499 2.98557 23.4941 2.98535C23.4738 2.98535 23.3346 2.99123 23.0664 3.25781C22.7964 3.52625 22.4889 3.97142 22.166 4.61719C21.5229 5.90347 20.9345 7.74696 20.4385 9.87305C19.449 14.1146 18.8848 19.213 18.8848 22.5762C18.8846 23.2125 18.3688 23.7285 17.7324 23.7285C17.0961 23.7285 16.5802 23.2125 16.5801 22.5762C16.5801 19.025 17.1676 13.751 18.1943 9.34961C18.7064 7.15445 19.3432 5.10848 20.1045 3.58594C20.4837 2.82752 20.9237 2.13772 21.4414 1.62305C21.9608 1.10685 22.6503 0.680664 23.4941 0.680664Z" fill="#FCFCFC"/>
</svg>
