<svg width="44" height="44" viewBox="0 0 44 44" fill="none" xmlns="http://www.w3.org/2000/svg">
<path d="M31.6711 8.1809C30.6671 9.30117 27.2662 13.4383 25.7651 15.4774H25.396L27.6846 2.43216L26.8725 1.17923L25.6913 0.663317L24.3624 1.47404L23.7718 3.09548L22.443 16.7303H22.1476L21.557 14.9615L14.9128 0.81072L14.1745 0.221106L12.3289 0L11.5168 0.221106L10.1879 1.98995L10.6309 4.49581L17.2752 15.9196V16.067L16.9799 16.2881L6.57047 8.47571L6.27517 8.32831L4.57718 8.1809L3.39597 9.50754L3.61745 11.4238L4.3557 12.1608L17.1275 20.9313L17.5705 21.2261L17.4966 21.6683L0.959732 20.3417L0.147651 20.9313L0 21.5209L0.959732 22.8476L1.91946 23.0687L17.2752 23.732L17.4966 23.8794L17.2752 24.3953L8.63758 29.1859L5.16779 31.5444L4.72483 32.0603L4.65101 33.3869L5.53691 34.1977L7.60403 33.9766L19.1946 26.459L19.3423 26.3853L19.2685 26.8275L9.89262 38.8409L9.74497 40.0201L11.0738 40.6834L11.8121 40.3886L15.1342 36.8509L21.557 28.0067H21.9262L21.557 29.1859L19.1208 41.7152L19.7114 43.1156L20.8926 44L22.2215 43.4104L22.8121 42.6734L24.0671 29.4807L24.2886 29.3333L31.4497 40.3149L32.7785 40.6097L33.8859 40.2412L34.1074 39.5042L33.8859 37.5879L28.7919 29.9967V29.6281H29.0872L38.1678 36.9983L38.8322 37.072L39.4228 36.2613L39.2013 35.2295L28.8658 25.6482V25.4271L29.0872 25.3534L41.7114 28.4489L43.8523 27.3434L44 26.3853L43.2617 25.2797L41.5638 24.2479L29.1611 23.5109L29.0134 23.3635L43.2617 20.1943L43.8523 18.7203L43.7047 17.9832L42.1544 17.2462L30.4161 19.531L30.2685 19.3099L31.6711 16.8777L37.5772 9.06533L38.2416 7.00168L36.7651 4.93802H34.9933L33.8859 5.74874C33.566 6.09269 32.6752 7.06064 31.6711 8.1809Z" fill="#FAF9FF"/>
</svg>
