<svg width="21" height="45" viewBox="0 0 21.2 44.7715" fill="none" xmlns="http://www.w3.org/2000/svg">
<path d="M0.600002 15.0287L5.45714 8.17153H10.6V5.1H8.1V0.6H13.1V5.1H10.6V8.17153H15.7429L20.6 15.0287V40.6001C20.6 40.6001 20.5961 42.1239 19.6 43.1001C18.6238 44.0568 17.1 44.1715 17.1 44.1715H4.1C4.1 44.1715 2.57621 44.0568 1.6 43.1001C0.603867 42.1239 0.600002 40.6001 0.600002 40.6001V15.0287Z" fill="#C8C4D7" fill-opacity="0.4"/>
<path d="M20.6 15.0287L15.7429 8.17153H10.6M20.6 15.0287H0.600002M20.6 15.0287V40.6001C20.6 40.6001 20.5961 42.1239 19.6 43.1001C18.6238 44.0568 17.1 44.1715 17.1 44.1715H4.1C4.1 44.1715 2.57621 44.0568 1.6 43.1001C0.603867 42.1239 0.600002 40.6001 0.600002 40.6001V15.0287M0.600002 15.0287L5.45714 8.17153H10.6M10.6 8.17153V5.1M10.6 5.1H13.1V0.6H8.1V5.1H10.6Z" stroke="#585564" stroke-width="1.2"/>
</svg>
